<svg xmlns="http://www.w3.org/2000/svg" width="24" height="24" fill="none"><g fill="#F4F4FD" clip-path="url(#a)"><path d="M23.98 7.06a8.77 8.77 0 0 0-.56-2.92c-.3-.8-.77-1.52-1.39-2.12A5.9 5.9 0 0 0 19.91.63 8.8 8.8 0 0 0 17 .08 81.9 81.9 0 0 0 12.04 0C8.8 0 8.38.01 7.1.07a8.77 8.77 0 0 0-2.91.56c-.81.3-1.53.77-2.13 1.39A5.9 5.9 0 0 0 .68 4.14a8.8 8.8 0 0 0-.56 2.91A81.9 81.9 0 0 0 .04 12c0 3.26.02 3.67.07 4.95.06 1.27.27 2.15.56 2.91.3.8.78 1.53 1.39 2.13a5.9 5.9 0 0 0 2.12 1.38c.77.3 1.64.5 2.91.56 1.28.06 1.7.07 4.95.07 3.26 0 3.67-.01 4.95-.07a8.77 8.77 0 0 0 2.9-.56 6.14 6.14 0 0 0 3.52-3.51c.3-.76.5-1.64.56-2.91.05-1.28.07-1.69.07-4.95 0-3.26 0-3.66-.06-4.94Zm-2.16 9.8a6.58 6.58 0 0 1-.42 2.22 3.98 3.98 0 0 1-2.28 2.28 6.6 6.6 0 0 1-2.22.41c-1.27.06-1.65.07-4.85.07-3.2 0-3.59-.01-4.85-.07a6.57 6.57 0 0 1-2.23-.41c-.52-.2-.99-.5-1.37-.9-.4-.38-.7-.85-.9-1.37a6.6 6.6 0 0 1-.41-2.23 84.46 84.46 0 0 1-.07-4.85c0-3.2.01-3.58.07-4.85.05-1.17.25-1.8.41-2.22.2-.52.5-1 .9-1.38.39-.4.86-.7 1.38-.9a6.6 6.6 0 0 1 2.23-.41c1.26-.06 1.64-.07 4.84-.07 3.21 0 3.59.01 4.85.07 1.17.05 1.8.25 2.23.41.52.2 1 .5 1.38.9.4.39.7.86.9 1.38.16.42.35 1.06.4 2.22.06 1.27.08 1.65.08 4.85 0 3.2-.02 3.58-.07 4.84Z"/><path d="M12.04 5.84a6.17 6.17 0 1 0 0 12.33 6.17 6.17 0 0 0 0-12.33Zm0 10.16a4 4 0 1 1 0-8 4 4 0 0 1 0 8ZM19.9 5.6a1.44 1.44 0 1 1-2.89 0 1.44 1.44 0 0 1 2.88 0Z"/></g><defs><clipPath id="a"><path fill="#fff" d="M0 0h24v24H0z"/></clipPath></defs></svg>