<svg xmlns="http://www.w3.org/2000/svg" width="24" height="24" fill="none"><g clip-path="url(#a)"><path fill="#F4F4FD" d="M24 4.56c-.9.39-1.84.65-2.84.78a4.9 4.9 0 0 0 2.17-2.72c-.95.56-2 .96-3.12 1.19a4.93 4.93 0 0 0-8.4 4.48A13.93 13.93 0 0 1 1.67 3.15a4.95 4.95 0 0 0 1.51 6.57 4.86 4.86 0 0 1-2.22-.6v.05c0 2.4 1.7 4.38 3.94 4.84a4.91 4.91 0 0 1-2.22.07 4.97 4.97 0 0 0 4.6 3.43A9.89 9.89 0 0 1 0 19.54c2.18 1.4 4.76 2.21 7.55 2.21 9.05 0 14-7.5 14-14 0-.22 0-.43-.02-.64.98-.69 1.8-1.56 2.47-2.55Z"/></g><defs><clipPath id="a"><path fill="#fff" d="M0 0h24v24H0z"/></clipPath></defs></svg>